inDegrees=yes
name=ik_MT_01200627-001-000_orientations_updatedTime
DataType=double
version=3
OpenSimVersion=4.5-2024-07-10-f38669b70
endheader
time	pelvis_tilt	pelvis_list	pelvis_rotation	pelvis_tx	pelvis_ty	pelvis_tz	hip_flexion_r	hip_adduction_r	hip_rotation_r	knee_angle_r	knee_angle_r_beta	ankle_angle_r	subtalar_angle_r	mtp_angle_r	hip_flexion_l	hip_adduction_l	hip_rotation_l	knee_angle_l	knee_angle_l_beta	ankle_angle_l	subtalar_angle_l	mtp_angle_l	lumbar_extension	lumbar_bending	lumbar_rotation	arm_flex_r	arm_add_r	arm_rot_r	elbow_flex_r	pro_sup_r	wrist_flex_r	wrist_dev_r	arm_flex_l	arm_add_l	arm_rot_l	elbow_flex_l	pro_sup_l	wrist_flex_l	wrist_dev_l
1748342924.215505	0.001350809949773277	-0.002455483272510311	-82.66429221914491	0	0.9399999943917833	0	79.99999999525214	-7.000000001125469	0	79.99999999792263	1.396263401559207	0	0	0	79.99999999525214	-7.000000004501878	0	79.99999999802388	1.396263401560974	0	0	0	0.002146881020857128	0.004868125419601749	-0.005597054775366404	-0.3350672866213626	-0.08904154516197432	-0.4110373722731239	0.6879665789582718	0.5914208570762159	-0.3368169257556398	-0.08747997720508814	-0.3338171426013909	-0.08466579310837682	-0.3836118727644095	0.685430044451146	0.590569103062398	-0.3282172969145412	-0.08521181044461358
1748342924.225505	-0.002999681764742179	0.007958340543306033	-82.68226754975565	0	0.9399999943917833	0	79.99999999525214	-7.000000001125469	0	79.99999999792263	1.396263401559207	0	0	0	79.99999999525214	-7.000000004501878	0	79.99999999802388	1.396263401560974	0	0	0	0.01048148594495997	0.003028734546322724	0.001566145821875887	-0.328051498527167	-0.09510523543259052	-0.3813067888153218	0.6839581428036607	0.5896718516719914	-0.3416030978538022	-0.07817627314429709	-0.3323420436799436	-0.09690700041954599	-0.387548988249765	0.6784748122540676	0.6009981622370808	-0.3228788189456684	-0.0847819830589015
1748342924.235505	0.005012769545991347	0.02398921950214601	-82.69263820741742	0	0.9399999943917833	0	79.99999999525214	-7.000000001125469	0	79.99999999792263	1.396263401559207	0	0	0	79.99999999525214	-7.000000004501878	0	79.99999999802388	1.396263401560974	0	0	0	0.05580477278577568	-0.001519318212940834	0.01716846360116505	-0.3713174739201784	-0.1005806246973098	-0.3787130429182271	0.6833134462378306	0.5963143851341245	-0.3252578383608196	-0.07325433511843293	-0.382341096590711	-0.09781858465178377	-0.3686820770425737	0.6772850556380808	0.6073945410507188	-0.2858066266916641	-0.06827371324220265
1748342924.245505	-0.009243011152789728	0.009865881544549296	-82.69973559089603	0	0.9399999943917833	0	79.99999999525214	-7.000000001125469	0	79.99999999792263	1.396263401559207	0	0	0	79.99999999525214	-7.000000004501878	0	79.99999999802388	1.396263401560974	0	0	0	0.0139859237476108	0.005075947538736835	0.02358074051855417	-0.3442654872524337	-0.09205794790651275	-0.3628313471096564	0.6963835430724419	0.5914490314413802	-0.3503979640396227	-0.06132709452227633	-0.3498309256872231	-0.1031156925946664	-0.3699366727932097	0.698443162293483	0.6228011300069921	-0.3257529101131513	-0.07611335792344354
1748342924.255505	-0.006960460513495783	0.004648311152712823	-82.70310846457882	0	0.9399999943917833	0	79.99999999525214	-7.000000001125469	0	79.99999999792263	1.396263401559207	0	0	0	79.99999999525214	-7.000000004501878	0	79.99999999802388	1.396263401560974	0	0	0	-0.01438693239194521	0.002237800814191353	0.02165015191588972	-0.3147270707733626	-0.08874047112994105	-0.3480939312838671	0.6819631145899462	0.6023425422728655	-0.3391465277782014	-0.08143800684910338	-0.3248259842445485	-0.1103091175580924	-0.3668222278528904	0.6794816138461875	0.6205607018200429	-0.3115701529711346	-0.08018603393621729
1748342924.265505	-0.009226227282465707	0.02468350497010383	-82.69375799290522	0	0.9399999943917833	0	79.99999999525214	-7.000000001125469	0	79.99999999792263	1.396263401559207	0	0	0	79.99999999525214	-7.000000004501878	0	79.99999999802388	1.396263401560974	0	0	0	0.03963154212293597	0.0005808758543970718	0.004810010083459325	-0.3588785861231405	-0.09163260291105163	-0.3230066088122073	0.6820295840376386	0.6048376952317428	-0.3085966821212696	-0.0596669974705032	-0.3615565774722404	-0.1274463589140375	-0.3773931807012824	0.6858799711081957	0.6223059686009038	-0.2957647976662152	-0.07083409012514345
1748342924.275505	-0.004493273058970073	0.01573334305703301	-82.65380187045835	0	0.9399999943917833	0	79.99999999525214	-7.000000001125469	0	79.99999999792263	1.396263401559207	0	0	0	79.99999999525214	-7.000000004501878	0	79.99999999802388	1.396263401560974	0	0	0	0.006903340011924883	0.001034260853553032	-0.02506393513921859	-0.3393144243064863	-0.09322244738699935	-0.3324773265802228	0.6951960686056466	0.6198744181623884	-0.3237493771203736	-0.07143626307915277	-0.3348129163516592	-0.1249391904901868	-0.3779156077858948	0.6998454290040882	0.6236081972323678	-0.31878559394529	-0.0784907568868423
1748342924.285505	-0.006349429685466795	0.02177742232797568	-82.67051915649837	0	0.9399999943917833	0	79.99999999525214	-7.000000001125469	0	79.99999999792263	1.396263401559207	0	0	0	79.99999999525214	-7.000000004501878	0	79.99999999802388	1.396263401560974	0	0	0	0.05618138480281494	0.001717162786803165	-0.03218995316601388	-0.400540358593669	-0.1013909417142193	-0.2885623016351399	0.6943483242227487	0.6102524621081707	-0.2877699741136422	-0.05424079425031869	-0.3756815541984662	-0.135939477418134	-0.3956237613788928	0.6889301072009878	0.5929060517105414	-0.2901996854070352	-0.0821651274413694
1748342924.295505	-0.004166750629480218	0.004586027514286064	-82.64906614479312	0	0.9399999943917833	0	79.99999999525214	-7.000000001125469	0	79.99999999792263	1.396263401559207	0	0	0	79.99999999525214	-7.000000004501878	0	79.99999999802388	1.396263401560974	0	0	0	0.008088449298331869	0.008605708876653283	-0.05181360399988537	-0.3421899053553259	-0.1025865397960372	-0.3083022483524469	0.6912353589115192	0.6200427032533509	-0.31284337994745	-0.08045411166378351	-0.3329641404889733	-0.1348742575339718	-0.3986124907369171	0.698455451532292	0.5892959592764995	-0.327913031310277	-0.09966685317171059
1748342924.305505	-0.0128954363429984	0.00802281624485379	-82.63761953871074	0	0.9399999943917833	0	79.99999999525214	-7.000000001125469	0	79.99999999792263	1.396263401559207	0	0	0	79.99999999525214	-7.000000004501878	0	79.99999999802388	1.396263401560974	0	0	0	0.00941093781305789	0.01169670650879831	-0.0630628390266348	-0.339990194973263	-0.1007875695060981	-0.2920094258103343	0.6919174576784384	0.5998975715425094	-0.3136575643565157	-0.07506402287625304	-0.333790240309149	-0.1403526892975238	-0.3847345264365398	0.6887799594864281	0.5828344330369194	-0.3363324079219465	-0.1286214149551606
1748342924.315505	-0.005149005711744243	0.01049673384155364	-82.65059453608917	0	0.9399999943917833	0	79.99999999525214	-7.000000001125469	0	79.99999999792263	1.396263401559207	0	0	0	79.99999999525214	-7.000000004501878	0	79.99999999802388	1.396263401560974	0	0	0	0.03352307405458562	0.01286056388996638	-0.06135992259525312	-0.3601764465185404	-0.1134182239445854	-0.2823011229570851	0.6865238220806934	0.5942356080954796	-0.2926650288586482	-0.07544424820753412	-0.3638138232154888	-0.1410658916518276	-0.3800572153814398	0.6949608022755978	0.5815130348411134	-0.320039199375183	-0.115136268865475
1748342924.325505	0.005674055863131584	-0.001766243823113225	-82.64244920322017	0	0.9399999943917833	0	79.99999999525214	-7.000000001125469	0	79.99999999792263	1.396263401559207	0	0	0	79.99999999525214	-7.000000004501878	0	79.99999999802388	1.396263401560974	0	0	0	0.02415011873230321	0.003572368446084067	-0.07752967315619967	-0.429086448920346	-0.1328003361599744	-0.3480163859121421	0.8179969197571504	0.718354354280644	-0.3511285403675709	-0.1118877585232926	-0.4311056007913408	-0.1531258638017199	-0.4492453538207263	0.8112139941777052	0.7207650335531899	-0.3502641116981977	-0.1554850648542805
1748342924.335505	-0.001764741609629404	-0.0151182231369659	-82.63104891312094	0	0.9399999943917833	0	79.99999999525214	-7.000000001125469	0	79.99999999792263	1.396263401559207	0	0	0	79.99999999525214	-7.000000004501878	0	79.99999999802388	1.396263401560974	0	0	0	-0.03281380399295281	0.01095411682995633	-0.09213055106359169	-0.3066057069727876	-0.1080736348575929	-0.2688639462849868	0.6895911600058546	0.591417874007574	-0.3165828292442817	-0.07382102820150885	-0.3178975202464511	-0.1449764137525131	-0.3686660094349704	0.7016470735974319	0.592256086760375	-0.3131976829563542	-0.1111106031711887
1748342924.345505	-0.002188223473515101	6.935001241375001e-05	-82.63310644307263	0	0.9399999943917833	0	79.99999999525214	-7.000000001125469	0	79.99999999792263	1.396263401559207	0	0	0	79.99999999525214	-7.000000004501878	0	79.99999999802388	1.396263401560974	0	0	0	0.001212755601690841	0.006663293532288291	-0.08217555496937586	-0.3313453631569752	-0.1054788796595998	-0.276485889704509	0.6804118828077322	0.5952203148760991	-0.2998552071716747	-0.07470578728064187	-0.3430654506645591	-0.1437881511293886	-0.3698506152777596	0.6924889314693847	0.5979143455220828	-0.2777216648057941	-0.09628016445205338
1748342924.355505	-0.006022731651616265	0.003646091495102422	-82.66060319525702	0	0.9399999943917833	0	79.99999999525214	-7.000000001125469	0	79.99999999792263	1.396263401559207	0	0	0	79.99999999525214	-7.000000004501878	0	79.99999999802388	1.396263401560974	0	0	0	0.008329933648205095	0.009903032271507657	-0.05359798709369992	-0.3410191646228055	-0.1148724073779189	-0.2918495016520838	0.699263160958923	0.6007850748840909	-0.3394571531874671	-0.04943112387010433	-0.3293743891338963	-0.1516040257190769	-0.3823098874733809	0.7001198108509638	0.6089513779657755	-0.2787609778882601	-0.07075890833847355
1748342924.365505	-0.004845962748683989	0.01643731311133467	-82.66524194801329	0	0.9399999943917833	0	79.99999999525214	-7.000000001125469	0	79.99999999792263	1.396263401559207	0	0	0	79.99999999525214	-7.000000004501878	0	79.99999999802388	1.396263401560974	0	0	0	0.0155920030982001	0.006443876537575464	-0.06793357908551972	-0.3140352079521371	-0.106304771493468	-0.2286616799654042	0.6771896154503885	0.5761852190350432	-0.3048156363912762	-0.04602145219284895	-0.3234600307391385	-0.1542244960115225	-0.3716903342749085	0.6986730518093042	0.5854557278359219	-0.2643473855286688	-0.05577172019035562
1748342924.375505	-0.004264943998746131	0.01977182074071399	-82.63209646172587	0	0.9399999943917833	0	79.99999999525214	-7.000000001125469	0	79.99999999792263	1.396263401559207	0	0	0	79.99999999525214	-7.000000004501878	0	79.99999999802388	1.396263401560974	0	0	0	0.01831637658397196	0.005884978818389162	-0.09984581729086391	-0.3134524823610279	-0.09682093264290659	-0.2414469853375997	0.6830505429854097	0.5870482996680004	-0.3055583062167014	-0.07917608291586907	-0.3234025022536576	-0.1454691350448015	-0.3753914491965331	0.7043972388161749	0.5842732644025533	-0.2945569663738572	-0.09817044466238328
1748342924.385505	-0.02142406898657301	0.01952048787768787	-82.67807009669261	0	0.9399999943917833	0	79.99999999525214	-7.000000001125469	0	79.99999999792263	1.396263401559207	0	0	0	79.99999999525214	-7.000000004501878	0	79.99999999802388	1.396263401560974	0	0	0	0.06659063021258042	0.01050352708010642	-0.07343473097770871	-0.3822264759477897	-0.1000531092309818	-0.2239075362198551	0.7081178197496992	0.5873089321737456	-0.2857668166071891	-0.06439385339573486	-0.3802569581227147	-0.1673594216494924	-0.3849168448548196	0.7073820268616527	0.5826537917162559	-0.2868116013004095	-0.08610099814959087
